<svg xmlns="http://www.w3.org/2000/svg" width="23" height="18" viewBox="0 0 23 18">
    <g fill="none" fill-rule="evenodd">
        <g fill="#251E44" fill-rule="nonzero">
            <g>
                <g>
                    <g>
                        <path d="M22.146 0H.854C.382 0 0 .39 0 .87v16.26c0 .48.382.87.854.87h21.292c.472 0 .854-.39.854-.87V.87c0-.48-.382-.87-.854-.87zM.63.87c0-.126.1-.229.225-.229h21.292c.124 0 .225.103.225.23v1.831H.63V.87zM22.37 17.13c0 .126-.1.229-.225.229H.854c-.124 0-.225-.103-.225-.23V3.344H22.37V17.13z" transform="translate(-1377 -158) translate(1190) translate(1 136) translate(186 22)"/>
                        <path d="M2.308 8h18.384c.17 0 .308-.125.308-.279V5.28c0-.154-.138-.279-.308-.279H2.308C2.138 5 2 5.125 2 5.279V7.72c0 .154.138.279.308.279zm.308-2.443h17.768v1.886H2.616V5.557zM20.706 9H9.294C9.132 9 9 9.125 9 9.279v2.442c0 .154.132.279.294.279h11.412c.162 0 .294-.125.294-.279V9.28c0-.154-.132-.279-.294-.279zm-.294 2.443H9.588V9.557h10.824v1.886zM20.706 13H9.294c-.162 0-.294.125-.294.279v2.442c0 .154.132.279.294.279h11.412c.162 0 .294-.125.294-.279V13.28c0-.154-.132-.279-.294-.279zm-.294 2.443H9.588v-1.886h10.824v1.886zM2.317 16h5.366c.175 0 .317-.133.317-.297V9.297C8 9.133 7.858 9 7.683 9H2.317C2.142 9 2 9.133 2 9.297v6.406c0 .164.142.297.317.297zm.318-6.405h4.73v5.81h-4.73v-5.81zM20.556 1h-1.112C19.2 1 19 1.224 19 1.5s.199.5.444.5h1.112C20.8 2 21 1.776 21 1.5s-.199-.5-.444-.5zM18.556 1h-1.112C17.2 1 17 1.224 17 1.5s.199.5.444.5h1.112C18.8 2 19 1.776 19 1.5s-.199-.5-.444-.5zM15.556 1h-1.112C14.2 1 14 1.224 14 1.5s.199.5.444.5h1.112C15.8 2 16 1.776 16 1.5s-.199-.5-.444-.5z" transform="translate(-1377 -158) translate(1190) translate(1 136) translate(186 22)"/>
                    </g>
                </g>
            </g>
        </g>
    </g>
</svg>
