<svg xmlns="http://www.w3.org/2000/svg" width="24" height="24" viewBox="0 0 24 24">
    <g fill="none" fill-rule="evenodd">
        <g fill="#251E44" fill-rule="nonzero">
            <g>
                <path d="M13.227 21h6.546C20.45 21 21 20.463 21 19.8v-5.6c0-.663-.55-1.2-1.227-1.2h-6.546C12.55 13 12 13.537 12 14.2v5.6c0 .663.55 1.2 1.227 1.2zm-.409-6.8c0-.22.183-.4.41-.4h6.545c.226 0 .409.18.409.4v5.6c0 .22-.183.4-.41.4h-6.545c-.226 0-.409-.18-.409-.4v-5.6z" transform="translate(-1377 -229) translate(1377 229)"/>
                <path d="M18.2 17h.8v-1.6c0-.22-.18-.4-.4-.4H17v.8h1.2V17zM8 18H9V19H8z" transform="translate(-1377 -229) translate(1377 229)"/>
                <path d="M22.8 21.6H22v-9.64c.93-.192 1.598-1.01 1.6-1.96 0-.019 0-.038-.004-.056l-.704-4.912c-.083-.59-.588-1.03-1.184-1.032H18.8V1.2C18.798.538 18.262.002 17.6 0H6.4c-.662.002-1.198.538-1.2 1.2V4H2.292c-.596.002-1.1.442-1.184 1.032L.404 9.944C.401 9.962.399 9.981.4 10c.002.95.67 1.768 1.6 1.96v9.64h-.8c-.663 0-1.2.537-1.2 1.2 0 .663.537 1.2 1.2 1.2h21.6c.663 0 1.2-.537 1.2-1.2 0-.663-.537-1.2-1.2-1.2zM20.4 4.8h1.308c.199.002.367.147.396.344l.696 4.884c-.005.429-.238.822-.612 1.032-.374.21-.831.205-1.2-.014-.369-.218-.593-.617-.588-1.046V4.8zm-1.6 3.6V4.8h.8V10c0 .663-.537 1.2-1.2 1.2-.663 0-1.2-.537-1.2-1.2v-.4h.4c.662-.002 1.198-.538 1.2-1.2zM6 1.2c0-.22.18-.4.4-.4h11.2c.22 0 .4.18.4.4v7.2c0 .22-.18.4-.4.4H16V6.04l.392-1.96c.012-.053.012-.107 0-.16l-.4-2c-.038-.186-.202-.32-.392-.32H14c-.19 0-.354.134-.392.32l-.4 2c-.012.053-.012.107 0 .16l.392 1.96V8.8h-2.8V6.928c1.024-.485 1.655-1.54 1.596-2.672-.059-1.132-.795-2.116-1.864-2.492-.122-.043-.257-.025-.364.048-.105.077-.167.198-.168.328V4h-.8V2.14c-.001-.13-.063-.251-.168-.328-.107-.073-.242-.091-.364-.048-1.069.376-1.805 1.36-1.864 2.492-.059 1.132.572 2.187 1.596 2.672V8.8h-2c-.22 0-.4-.18-.4-.4V1.2zm8.328 4.4l-.32-1.6.32-1.6h.944l.32 1.6-.32 1.6h-.944zm.872.8v2.4h-.8V6.4h.8zm1.2 3.2v.4c0 .663-.537 1.2-1.2 1.2-.663 0-1.2-.537-1.2-1.2v-.4h2.4zm-7.2-.8V6.66c0-.17-.108-.32-.268-.376-.694-.246-1.197-.855-1.308-1.583-.111-.728.187-1.459.776-1.901v1.6c0 .22.18.4.4.4h1.6c.22 0 .4-.18.4-.4V2.8c.59.442.887 1.173.776 1.901-.111.728-.614 1.337-1.308 1.583-.16.056-.267.207-.268.376V8.8h-.8zm.8.8v.4c0 .663-.537 1.2-1.2 1.2-.663 0-1.2-.537-1.2-1.2v-.4H10zm.8 0h2.4v.4c0 .663-.537 1.2-1.2 1.2-.663 0-1.2-.537-1.2-1.2v-.4zM4.4 4.8h.8v3.6c.002.662.538 1.198 1.2 1.2h.4v.4c0 .663-.537 1.2-1.2 1.2-.663 0-1.2-.537-1.2-1.2V4.8zM4 11.2c.378.504.97.8 1.6.8.63 0 1.222-.296 1.6-.8.378.504.97.8 1.6.8.63 0 1.222-.296 1.6-.8.378.504.97.8 1.6.8.63 0 1.222-.296 1.6-.8.378.504.97.8 1.6.8.63 0 1.222-.296 1.6-.8.378.504.97.8 1.6.8.63 0 1.222-.296 1.6-.8.294.39.721.66 1.2.756V21.6H10V16c0-1.767-1.433-3.2-3.2-3.2-1.767 0-3.2 1.433-3.2 3.2v5.6h-.8v-9.644c.479-.097.906-.366 1.2-.756zM9.2 16v5.6H4.4V16c0-1.325 1.075-2.4 2.4-2.4s2.4 1.075 2.4 2.4zm-8-5.972l.696-4.884c.03-.197.197-.342.396-.344H3.6V10c.005.429-.22.828-.588 1.046-.369.219-.826.224-1.2.014s-.607-.603-.612-1.032zM22.8 23.2H1.2c-.22 0-.4-.18-.4-.4 0-.22.18-.4.4-.4h21.6c.22 0 .4.18.4.4 0 .22-.18.4-.4.4z" transform="translate(-1377 -229) translate(1377 229)"/>
            </g>
        </g>
    </g>
</svg>
