<svg xmlns="http://www.w3.org/2000/svg" width="55" height="55" viewBox="0 0 55 55">
    <g fill="none" fill-rule="evenodd">
        <g fill="#251E44" fill-rule="nonzero">
            <g>
                <g>
                    <path d="M30.313 48.125h15c1.553 0 2.812-1.231 2.812-2.75V32.542c0-1.52-1.26-2.75-2.813-2.75h-15c-1.553 0-2.812 1.23-2.812 2.75v12.833c0 1.519 1.26 2.75 2.813 2.75zm-.938-15.583c0-.507.42-.917.938-.917h15c.517 0 .937.41.937.917v12.833c0 .506-.42.917-.938.917h-15c-.517 0-.937-.41-.937-.917V32.542z" transform="translate(-482 -378) translate(17 343) translate(465 35)"/>
                    <path d="M41.708 38.958h1.834v-3.666c0-.507-.41-.917-.917-.917h-3.667v1.833h2.75v2.75zM18.333 41.25H20.625V43.542H18.333z" transform="translate(-482 -378) translate(17 343) translate(465 35)"/>
                    <path d="M52.25 49.5h-1.833V27.408c2.13-.44 3.66-2.315 3.666-4.491.002-.043-.001-.086-.009-.129l-1.613-11.256c-.191-1.353-1.347-2.36-2.713-2.365h-6.665V2.75C43.08 1.233 41.85.005 40.333 0H14.667c-1.517.005-2.746 1.233-2.75 2.75v6.417H5.253c-1.367.004-2.523 1.012-2.714 2.365L.926 22.788c-.008.043-.01.086-.01.129.006 2.176 1.536 4.05 3.667 4.491V49.5H2.75C1.231 49.5 0 50.731 0 52.25S1.231 55 2.75 55h49.5c1.519 0 2.75-1.231 2.75-2.75s-1.231-2.75-2.75-2.75zM46.75 11h2.998c.455.004.84.338.907.788l1.595 11.193c-.011.982-.546 1.884-1.403 2.365-.856.482-1.905.47-2.75-.032-.845-.5-1.358-1.415-1.347-2.397V11zm-3.667 8.25V11h1.834v11.917c0 1.518-1.232 2.75-2.75 2.75-1.52 0-2.75-1.232-2.75-2.75V22h.916c1.517-.005 2.746-1.233 2.75-2.75zM13.75 2.75c0-.506.41-.917.917-.917h25.666c.507 0 .917.41.917.917v16.5c0 .506-.41.917-.917.917h-3.666v-6.325l.898-4.492c.028-.12.028-.246 0-.367L36.648 4.4c-.087-.427-.462-.733-.898-.733h-3.667c-.435 0-.81.306-.898.733l-.917 4.583c-.027.121-.027.246 0 .367l.899 4.492v6.325H24.75v-4.29c2.347-1.111 3.792-3.53 3.657-6.123-.134-2.594-1.821-4.85-4.271-5.711-.28-.1-.59-.059-.834.11-.24.175-.383.454-.385.751v4.263h-1.834V4.904c-.002-.297-.145-.576-.385-.752-.244-.167-.554-.208-.834-.11-2.45.863-4.137 3.118-4.271 5.712-.135 2.593 1.31 5.012 3.657 6.123v4.29h-4.583c-.507 0-.917-.41-.917-.917V2.75zm19.085 10.083l-.733-3.666.733-3.667h2.163l.734 3.667-.734 3.666h-2.163zm1.998 1.834v5.5H33v-5.5h1.833zM37.583 22v.917c0 1.518-1.23 2.75-2.75 2.75-1.518 0-2.75-1.232-2.75-2.75V22h5.5zm-16.5-1.833v-4.905c-.001-.388-.247-.733-.614-.861-1.59-.565-2.743-1.959-2.997-3.628-.255-1.669.428-3.342 1.778-4.356v3.666c0 .507.41.917.917.917h3.666c.507 0 .917-.41.917-.917V6.417c1.35 1.014 2.033 2.687 1.778 4.356-.254 1.67-1.406 3.063-2.997 3.628-.367.128-.613.473-.614.861v4.905h-1.834zM22.917 22v.917c0 1.518-1.232 2.75-2.75 2.75-1.52 0-2.75-1.232-2.75-2.75V22h5.5zm1.833 0h5.5v.917c0 1.518-1.231 2.75-2.75 2.75s-2.75-1.232-2.75-2.75V22zM10.083 11h1.834v8.25c.004 1.517 1.233 2.745 2.75 2.75h.916v.917c0 1.518-1.23 2.75-2.75 2.75-1.518 0-2.75-1.232-2.75-2.75V11zm-.916 14.667c.865 1.154 2.224 1.833 3.666 1.833 1.443 0 2.801-.68 3.667-1.833.866 1.154 2.224 1.833 3.667 1.833 1.442 0 2.8-.68 3.666-1.833C24.7 26.82 26.057 27.5 27.5 27.5c1.443 0 2.801-.68 3.667-1.833.865 1.154 2.224 1.833 3.666 1.833 1.443 0 2.801-.68 3.667-1.833.866 1.154 2.224 1.833 3.667 1.833 1.442 0 2.8-.68 3.666-1.833.674.894 1.653 1.51 2.75 1.732V49.5H22.917V36.667c0-4.05-3.284-7.334-7.334-7.334S8.25 32.617 8.25 36.667V49.5H6.417V27.4c1.097-.223 2.076-.839 2.75-1.733zm11.916 11V49.5h-11V36.667c0-3.038 2.463-5.5 5.5-5.5 3.038 0 5.5 2.462 5.5 5.5zM2.75 22.98l1.595-11.193c.067-.45.452-.784.908-.788H8.25v11.917c.011.982-.502 1.896-1.347 2.397-.845.501-1.894.514-2.75.032-.857-.481-1.392-1.383-1.403-2.365zm49.5 30.186H2.75c-.506 0-.917-.41-.917-.917 0-.506.41-.917.917-.917h49.5c.506 0 .917.41.917.917 0 .506-.41.917-.917.917z" transform="translate(-482 -378) translate(17 343) translate(465 35)"/>
                </g>
            </g>
        </g>
    </g>
</svg>
