<svg xmlns="http://www.w3.org/2000/svg" width="22" height="14" viewBox="0 0 22 14">
    <g fill="none" fill-rule="evenodd">
        <g fill="#251E44" fill-rule="nonzero">
            <g>
                <g>
                    <path d="M19.027 6.16c.644-.454 1.07-1.208 1.07-2.059 0-1.392-1.122-2.517-2.51-2.517-1.39 0-2.513 1.125-2.513 2.517 0 .85.423 1.605 1.071 2.06-.553.191-1.058.488-1.484.872-.588-.502-1.28-.886-2.037-1.113.918-.558 1.536-1.575 1.536-2.73 0-1.763-1.423-3.19-3.182-3.19C9.22 0 7.796 1.431 7.796 3.19c0 1.155.614 2.172 1.537 2.73-.749.227-1.432.607-2.016 1.1-.426-.376-.922-.668-1.467-.855.645-.454 1.071-1.209 1.071-2.06 0-1.391-1.123-2.517-2.511-2.517-1.389 0-2.512 1.126-2.512 2.517 0 .851.422 1.606 1.07 2.06C1.242 6.762 0 8.407 0 10.34v.288c0 .008.009.017.017.017h5.324c-.03.24-.048.489-.048.737v.297C5.293 12.962 6.33 14 7.61 14h6.747c1.28 0 2.316-1.038 2.316-2.321v-.297c0-.248-.017-.497-.048-.737h5.359c.008 0 .017-.009.017-.017v-.288c-.009-1.937-1.245-3.582-2.973-4.18zM15.77 4.097c0-1.004.814-1.82 1.815-1.82s1.815.816 1.815 1.82c0 .99-.796 1.797-1.78 1.819h-.07c-.988-.018-1.78-.825-1.78-1.82zm-7.287-.908c0-1.374 1.114-2.491 2.486-2.491 1.37 0 2.485 1.117 2.485 2.491 0 1.326-1.04 2.413-2.342 2.487h-.287c-1.302-.074-2.342-1.16-2.342-2.487zm-5.903.908c0-1.004.814-1.82 1.816-1.82 1 0 1.815.816 1.815 1.82 0 .99-.797 1.797-1.78 1.819h-.07c-.984-.018-1.78-.825-1.78-1.82zm2.882 5.846H.705c.196-1.859 1.763-3.316 3.665-3.33h.053c.905.005 1.732.341 2.372.887-.627.68-1.093 1.518-1.332 2.443zm10.504 1.736c0 .894-.727 1.623-1.62 1.623H7.6c-.892 0-1.619-.729-1.619-1.623v-.297c0-2.709 2.16-4.925 4.845-5.004.048.005.1.005.148.005.048 0 .1 0 .148-.005 2.686.079 4.845 2.295 4.845 5.004v.297zm.518-1.736c-.24-.92-.697-1.745-1.32-2.426.645-.558 1.48-.894 2.395-.903h.052c1.902.013 3.47 1.47 3.665 3.329h-4.792z" transform="translate(-1377 -319) translate(1190 148) translate(187 171)"/>
                </g>
            </g>
        </g>
    </g>
</svg>
