<svg xmlns="http://www.w3.org/2000/svg" width="55" height="35" viewBox="0 0 55 35">
    <g fill="none" fill-rule="evenodd">
        <g fill="#251E44" fill-rule="nonzero">
            <g>
                <g>
                    <path d="M47.567 15.4c1.61-1.134 2.677-3.02 2.677-5.148 0-3.479-2.807-6.293-6.279-6.293-3.471 0-6.279 2.814-6.279 6.293 0 2.127 1.056 4.014 2.677 5.148-1.382.48-2.644 1.222-3.71 2.182-1.47-1.254-3.2-2.214-5.094-2.781 2.296-1.397 3.842-3.938 3.842-6.828C35.4 3.567 31.842 0 27.446 0c-4.397 0-7.955 3.577-7.955 7.973 0 2.89 1.534 5.431 3.841 6.828-1.872.567-3.58 1.516-5.039 2.748-1.066-.938-2.307-1.669-3.667-2.138 1.61-1.134 2.677-3.02 2.677-5.148 0-3.479-2.808-6.293-6.28-6.293-3.47 0-6.278 2.814-6.278 6.293 0 2.127 1.055 4.014 2.677 5.148C3.102 16.906 0 21.017 0 25.85v.72c0 .022.022.044.044.044h13.309c-.076.6-.12 1.221-.12 1.843v.742c0 3.206 2.59 5.802 5.79 5.802H35.89c3.2 0 5.79-2.596 5.79-5.802v-.742c0-.622-.044-1.243-.12-1.843h13.396c.022 0 .044-.022.044-.044v-.72c-.022-4.842-3.112-8.954-7.433-10.449zm-8.14-5.158c0-2.51 2.035-4.549 4.538-4.549s4.538 2.04 4.538 4.549c0 2.475-1.991 4.493-4.45 4.548h-.175c-2.47-.044-4.45-2.062-4.45-4.548zM21.21 7.972c0-3.435 2.786-6.227 6.214-6.227 3.428 0 6.214 2.792 6.214 6.228 0 3.316-2.601 6.031-5.855 6.217h-.718c-3.254-.186-5.855-2.901-5.855-6.217zm-14.757 2.27c0-2.51 2.035-4.549 4.538-4.549s4.538 2.04 4.538 4.549c0 2.475-1.991 4.493-4.45 4.548h-.175c-2.46-.044-4.45-2.062-4.45-4.548zm7.204 14.615H1.763c.49-4.647 4.407-8.29 9.163-8.322h.131c2.263.01 4.33.85 5.93 2.214-1.567 1.701-2.731 3.795-3.33 6.108zm26.26 4.34c0 2.236-1.817 4.058-4.048 4.058H19c-2.231 0-4.048-1.822-4.048-4.057v-.742c0-6.773 5.397-12.314 12.112-12.51.12.01.25.01.37.01s.25 0 .37-.01c6.714.196 12.112 5.737 12.112 12.51v.742zm1.295-4.34c-.599-2.302-1.741-4.363-3.297-6.065 1.61-1.396 3.7-2.235 5.985-2.257h.13c4.756.032 8.674 3.675 9.164 8.322H41.212z" transform="translate(-1095 -388) translate(630 340) translate(465 48)"/>
                </g>
            </g>
        </g>
    </g>
</svg>
